<?xml version="1.0" standalone="no"?><!DOCTYPE svg PUBLIC "-//W3C//DTD SVG 1.1//EN" "http://www.w3.org/Graphics/SVG/1.1/DTD/svg11.dtd"><svg t="1709283061246" class="icon" viewBox="0 0 1024 1024" version="1.1" xmlns="http://www.w3.org/2000/svg" p-id="9946" xmlns:xlink="http://www.w3.org/1999/xlink" width="200" height="200"><path d="M833.49 599a242.82 242.82 0 0 1 24.73 13.33V547a130.09 130.09 0 0 1-24.73 52zM629 599a130.15 130.15 0 0 1-27.89-80.71c0-72 58.27-130.46 130.15-130.46 62.06 0 114 43.54 127 101.8V238.94a10 10 0 0 0-10-10H369.11a9.77 9.77 0 0 0-9.76 9.78v120.15a10 10 0 0 1-10 10h-151a10 10 0 0 0-9.15 6L98.83 584.5a10.08 10.08 0 0 0-0.82 4V683a10 10 0 0 0 10 10h92.25a10 10 0 0 1 9.93 9.12 103.72 103.72 0 0 0 206.68 0 10 10 0 0 1 9.93-9.12h97.06A244.3 244.3 0 0 1 629 599z m-455.94-12.62a10 10 0 0 1-9.18-13.92l63.77-150a10 10 0 0 1 9.17-6.08h112.85a10 10 0 0 1 10 10V576.4a10 10 0 0 1-10 10zM311.81 745a52 52 0 1 1 53.54-53.67A52.12 52.12 0 0 1 311.81 745z" fill="#c1cbd9" p-id="9947"></path><path d="M774.26 606.83a97 97 0 1 0-80.34 0A194.34 194.34 0 0 0 540.18 797H928a194.33 194.33 0 0 0-153.74-190.17z" fill="#c1cbd9" p-id="9948"></path></svg>