<?xml version="1.0" standalone="no"?><!DOCTYPE svg PUBLIC "-//W3C//DTD SVG 1.1//EN" "http://www.w3.org/Graphics/SVG/1.1/DTD/svg11.dtd"><svg t="1709287104230" class="icon" viewBox="0 0 1024 1024" version="1.1" xmlns="http://www.w3.org/2000/svg" p-id="27691" xmlns:xlink="http://www.w3.org/1999/xlink" width="200" height="200"><path d="M464 736H192a80 80 0 0 1-80-80v-448A80 80 0 0 1 192 128h640a80 80 0 0 1 80 80v448A80 80 0 0 1 832 736h-272v64H768a32 32 0 0 1 32 32v32a32 32 0 0 1-32 32H256a32 32 0 0 1-32-32v-32a32 32 0 0 1 32-32h208v-64z m352-512h-608v416h608V224z m-448 96a32 32 0 0 1 32 32v208a32 32 0 0 1-32 32h-32a32 32 0 0 1-32-32V352a32 32 0 0 1 32-32h32z m320 48a32 32 0 0 1 32 32v160a32 32 0 0 1-32 32h-32a32 32 0 0 1-32-32v-160a32 32 0 0 1 32-32h32z m-160-96a32 32 0 0 1 32 32v256a32 32 0 0 1-32 32h-32a32 32 0 0 1-32-32v-256a32 32 0 0 1 32-32h32z" fill="#c1cbd9" p-id="27692"></path></svg>