<?xml version="1.0" standalone="no"?><!DOCTYPE svg PUBLIC "-//W3C//DTD SVG 1.1//EN" "http://www.w3.org/Graphics/SVG/1.1/DTD/svg11.dtd"><svg t="1709287201837" class="icon" viewBox="0 0 1024 1024" version="1.1" xmlns="http://www.w3.org/2000/svg" p-id="28769" xmlns:xlink="http://www.w3.org/1999/xlink" width="200" height="200"><path d="M106.666667 874.666667a42.666667 42.666667 0 0 0 42.666666 42.666666h405.333334v-85.333333H192V342.186667l320-182.122667 320 182.122667V554.666667h85.333333V317.376a42.666667 42.666667 0 0 0-21.546666-37.077333l-362.666667-206.4a42.666667 42.666667 0 0 0-42.24 0l-362.666667 206.4A42.666667 42.666667 0 0 0 106.666667 317.376V874.666667z m213.333333-512a21.333333 21.333333 0 0 0-21.333333 21.333333v128a21.333333 21.333333 0 0 0 21.333333 21.333333h128a21.333333 21.333333 0 0 0 21.333333-21.333333v-128a21.333333 21.333333 0 0 0-21.333333-21.333333h-128z m-21.333333 277.333333a21.333333 21.333333 0 0 1 21.333333-21.333333h128a21.333333 21.333333 0 0 1 21.333333 21.333333v128a21.333333 21.333333 0 0 1-21.333333 21.333333h-128a21.333333 21.333333 0 0 1-21.333333-21.333333v-128z m542.72-5.269333c-6.08-5.930667-1.770667-16.064 6.826666-16.064h102.144c5.333333 0 9.642667 4.224 9.642667 9.408v99.626666c0 8.384-10.389333 12.586667-16.469333 6.656l-31.466667-30.698666-57.856 56.426666a9.493333 9.493333 0 0 1-1.6 2.069334l-27.306667 26.624a9.749333 9.749333 0 0 1-7.061333 2.752 9.749333 9.749333 0 0 1-7.082667-2.773334l-27.306666-26.602666a9.493333 9.493333 0 0 1-1.6-2.069334l-55.872-54.506666-85.290667 83.2a9.813333 9.813333 0 0 1-13.653333 0l-27.285334-26.624a9.237333 9.237333 0 0 1 0-13.312l92.117334-89.834667 27.306666-26.624a9.813333 9.813333 0 0 1 13.632 0l27.306667 26.624 57.728 56.32 52.885333-51.584-29.738666-29.013333z m-238.4 200.405333c0-5.205333 4.330667-9.408 9.642666-9.408h38.613334c5.333333 0 9.642667 4.202667 9.642666 9.408v94.122667a9.536 9.536 0 0 1-9.664 9.408h-38.592a9.536 9.536 0 0 1-9.642666-9.408v-94.122667z m106.133333-65.877333a9.536 9.536 0 0 0-9.642667 9.408v150.592c0 5.205333 4.309333 9.408 9.642667 9.408h38.613333c5.333333 0 9.642667-4.202667 9.642667-9.408V778.666667a9.536 9.536 0 0 0-9.664-9.408H709.12z m86.826667 65.877333c0-5.205333 4.330667-9.408 9.664-9.408h38.613333c5.333333 0 9.642667 4.202667 9.642667 9.408v94.122667a9.536 9.536 0 0 1-9.664 9.408h-38.592a9.536 9.536 0 0 1-9.642667-9.408v-94.122667z m106.154666-65.877333a9.536 9.536 0 0 0-9.642666 9.408v150.592c0 5.205333 4.309333 9.408 9.642666 9.408h38.613334c5.333333 0 9.642667-4.202667 9.642666-9.408V778.666667a9.536 9.536 0 0 0-9.664-9.408h-38.592z" fill="#c1cbd9" p-id="28770"></path></svg>