<?xml version="1.0" standalone="no"?><!DOCTYPE svg PUBLIC "-//W3C//DTD SVG 1.1//EN" "http://www.w3.org/Graphics/SVG/1.1/DTD/svg11.dtd"><svg t="1709286035609" class="icon" viewBox="0 0 1072 1024" version="1.1" xmlns="http://www.w3.org/2000/svg" p-id="24417" xmlns:xlink="http://www.w3.org/1999/xlink" width="209.375" height="200"><path d="M437.680605 34.293758L30.719561 359.969867C11.361362 375.475931 0 399.027595 0 423.84705V928.915644C0 973.14206 21.357409 1024 97.571178 1024h881.45636C1045.098975 1024 1072.74658 973.190821 1072.74658 925.11227V423.84705a81.431218 81.431218 0 0 0-30.865845-63.877183L632.871721 34.049952a156.523478 156.523478 0 0 0-195.191116 0.243806z m-124.389842 885.015928H102.837388v-208.990538h210.453375v208.990538z m0-297.102041H102.837388V413.217106h210.453375v208.990539z m306.805521 297.102041H409.594149v-208.990538h210.453374v208.990538z" p-id="24418" fill="#c1cbd9"></path></svg>