<?xml version="1.0" standalone="no"?><!DOCTYPE svg PUBLIC "-//W3C//DTD SVG 1.1//EN" "http://www.w3.org/Graphics/SVG/1.1/DTD/svg11.dtd"><svg t="1709286400877" class="icon" viewBox="0 0 1024 1024" version="1.1" xmlns="http://www.w3.org/2000/svg" p-id="26633" xmlns:xlink="http://www.w3.org/1999/xlink" width="200" height="200"><path d="M206.933333 896H174.933333a64 64 0 0 1-63.573333-64V401.066667a21.333333 21.333333 0 1 1 42.666667 0v430.933333a21.333333 21.333333 0 0 0 21.333333 21.76h32a21.333333 21.333333 0 1 1 0 42.666667z" fill="#c1cbd9" p-id="26634"></path><path d="M64 483.413333a20.906667 20.906667 0 0 1-15.786667-6.826666 21.333333 21.333333 0 0 1 0-30.293334L406.613333 128a21.333333 21.333333 0 0 1 30.293334 0 21.333333 21.333333 0 0 1 0 30.293333l-358.826667 320a21.333333 21.333333 0 0 1-14.08 5.12zM951.04 480a17.066667 17.066667 0 0 0 0-6.4 19.626667 19.626667 0 0 0-5.546667-7.68l-315.733333-289.28a19.626667 19.626667 0 0 0-5.546667-3.413333 85.333333 85.333333 0 0 0-105.813333 8.106666l-276.053333 256-29.013334 27.306667a18.773333 18.773333 0 0 0-5.12 7.68 17.066667 17.066667 0 0 0 0 6.4v2.986667a16.213333 16.213333 0 0 0 0 4.266666 11.093333 11.093333 0 0 0 3.413334 5.546667H213.333333a17.92 17.92 0 0 0 14.08 5.12h24.746667V810.666667a85.333333 85.333333 0 0 0 85.333333 85.333333h488.106667a85.333333 85.333333 0 0 0 85.333333-85.333333v-308.906667h19.2a19.2 19.2 0 0 0 14.08-5.12 24.32 24.32 0 0 0 3.413334-5.546667v-4.266666-2.986667zM469.333333 661.333333a21.333333 21.333333 0 0 1-21.333333 21.333334h-42.666667a21.333333 21.333333 0 0 1-21.333333-21.333334v-42.666666a21.333333 21.333333 0 0 1 21.333333-21.333334h42.666667a21.333333 21.333333 0 0 1 21.333333 21.333334z m0-128a21.333333 21.333333 0 0 1-21.333333 21.333334h-42.666667a21.333333 21.333333 0 0 1-21.333333-21.333334v-42.666666a21.333333 21.333333 0 0 1 21.333333-21.333334h42.666667a21.333333 21.333333 0 0 1 21.333333 21.333334z m128 0a21.333333 21.333333 0 0 1-21.333333 21.333334h-42.666667a21.333333 21.333333 0 0 1-21.333333-21.333334v-42.666666a21.333333 21.333333 0 0 1 21.333333-21.333334h42.666667a21.333333 21.333333 0 0 1 21.333333 21.333334z m228.266667 283.733334a20.48 20.48 0 0 1-29.866667 0l-40.533333-40.533334a16.213333 16.213333 0 0 1-3.84-5.546666 81.92 81.92 0 1 1 40.106667-70.4 79.786667 79.786667 0 0 1-11.946667 42.666666 17.493333 17.493333 0 0 1 5.546667 3.413334l42.666666 42.666666a21.333333 21.333333 0 0 1-2.133333 27.733334z" fill="#c1cbd9" p-id="26635"></path><path d="M709.546667 661.333333a39.68 39.68 0 1 0 39.253333 39.253334 39.68 39.68 0 0 0-39.253333-39.253334z" fill="#c1cbd9" p-id="26636"></path></svg>