<?xml version="1.0" standalone="no"?><!DOCTYPE svg PUBLIC "-//W3C//DTD SVG 1.1//EN" "http://www.w3.org/Graphics/SVG/1.1/DTD/svg11.dtd"><svg t="1709285717203" class="icon" viewBox="0 0 1024 1024" version="1.1" xmlns="http://www.w3.org/2000/svg" p-id="22296" xmlns:xlink="http://www.w3.org/1999/xlink" width="200" height="200"><path d="M395.752727 69.492364H69.818182A46.568727 46.568727 0 0 0 23.272727 116.061091v325.934545c0 25.693091 20.852364 46.568727 46.545455 46.568728h325.934545a46.592 46.592 0 0 0 46.545455-46.545455V116.037818a46.568727 46.568727 0 0 0-46.545455-46.545454z m512.186182 512.186181H582.004364a46.545455 46.545455 0 0 0-46.568728 46.568728V954.181818c0 25.716364 20.852364 46.568727 46.545455 46.568727h325.957818a46.592 46.592 0 0 0 46.545455-46.545454V628.224a46.568727 46.568727 0 0 0-46.545455-46.545455z m-162.955636-149.643636l-152.994909-153.018182 152.994909-152.994909 152.994909 152.994909-152.994909 152.994909z m218.833454-185.949091l-185.902545-185.902545A46.405818 46.405818 0 0 0 744.96 46.545455c-11.915636 0-23.854545 4.538182-32.930909 13.637818l-185.902546 185.902545a46.545455 46.545455 0 0 0 0 65.861818l185.902546 185.902546c9.076364 9.099636 21.015273 13.637818 32.930909 13.637818s23.831273-4.538182 32.930909-13.637818l185.902546-185.902546a46.592 46.592 0 0 0 0-65.861818zM93.090909 930.909091h279.365818V651.52H93.090909V930.909091z m302.638546-349.207273H69.818182A46.545455 46.545455 0 0 0 23.272727 628.247273V954.181818C23.272727 979.874909 44.125091 1000.727273 69.818182 1000.727273h325.934545a46.568727 46.568727 0 0 0 46.545455-46.545455V628.224a46.545455 46.545455 0 0 0-46.545455-46.545455z" fill="#c1cbd9" p-id="22297"></path></svg>