<?xml version="1.0" standalone="no"?><!DOCTYPE svg PUBLIC "-//W3C//DTD SVG 1.1//EN" "http://www.w3.org/Graphics/SVG/1.1/DTD/svg11.dtd"><svg t="1709283225608" class="icon" viewBox="0 0 1024 1024" version="1.1" xmlns="http://www.w3.org/2000/svg" p-id="10985" xmlns:xlink="http://www.w3.org/1999/xlink" width="200" height="200"><path d="M346.56 271.36h620.672a58.88 58.88 0 0 1 56.768 60.736c0 15.168-7.552 31.36-16.192 60.8l-97.344 317.056c-12.48 34.688-33.28 47.488-56.832 47.488H399.36c-20.864 0-46.08-12.352-56.768-48.384l-113.6-437.76H56.832C25.408 271.36 0 244.16 0 210.56s25.408-60.8 56.768-60.8h215.68c15.104 0 47.104 6.272 58.752 60.8l15.36 60.8zM430.08 960a61.12 61.12 0 0 1-61.44-60.8c0-33.536 27.52-60.736 61.44-60.736s61.44 27.2 61.44 60.8c0 33.536-27.52 60.736-61.44 60.736z m368.64 0a61.12 61.12 0 0 1-61.44-60.8c0-33.536 27.52-60.736 61.44-60.736s61.44 27.2 61.44 60.8c0 33.536-27.52 60.736-61.44 60.736zM446.784 352.448c-6.4 1.024-11.648 6.08-11.584 11.392v46.144c0 6.08 6.848 11.392 14.272 11.52h112.064c7.36-0.192 14.208-5.504 14.272-11.52v-46.144c0-6.016-6.848-11.392-14.208-11.392H449.472a8.96 8.96 0 0 0-2.688 0z m0 113.92c-6.4 1.024-11.648 6.08-11.584 11.392v46.208c0 6.016 6.848 11.328 14.272 11.392h112.064c7.36-0.128 14.208-5.44 14.272-11.52v-46.08c0-6.016-6.848-11.392-14.208-11.392H449.472a8.96 8.96 0 0 0-2.688 0z m179.2 0c-6.4 1.024-11.648 6.08-11.584 11.392v46.208c0 6.016 6.848 11.328 14.272 11.392h112.064c7.36-0.128 14.208-5.44 14.272-11.52v-46.08c0-6.016-6.848-11.392-14.208-11.392H628.672a8.96 8.96 0 0 0-2.688 0z m-179.2 113.92c-6.4 1.024-11.648 6.144-11.584 11.392v46.208c0 6.016 6.848 11.392 14.272 11.392h112.064c7.36-0.128 14.208-5.44 14.272-11.52v-46.08c0-6.016-6.848-11.392-14.208-11.392H449.472a8.96 8.96 0 0 0-2.688 0z m179.2 0c-6.4 1.024-11.648 6.144-11.584 11.392v46.208c0 6.016 6.848 11.392 14.272 11.392h112.064c7.36-0.128 14.208-5.44 14.272-11.52v-46.08c0-6.016-6.848-11.392-14.208-11.392H628.672a8.96 8.96 0 0 0-2.688 0z" fill="#c1cbd9" p-id="10986"></path><path d="M387.84 251.072l-28.8-42.688L485.12 123.456l42.752 63.36 169.6-114.432 59.52 88.064 5.888-64 202.176 152.384-5.76 2.24H387.968z" fill="#c1cbd9" p-id="10987"></path></svg>