<?xml version="1.0" standalone="no"?><!DOCTYPE svg PUBLIC "-//W3C//DTD SVG 1.1//EN" "http://www.w3.org/Graphics/SVG/1.1/DTD/svg11.dtd"><svg t="1709285260851" class="icon" viewBox="0 0 1024 1024" version="1.1" xmlns="http://www.w3.org/2000/svg" p-id="14984" xmlns:xlink="http://www.w3.org/1999/xlink" width="200" height="200"><path d="M772.266667 810.666667l-38.4-38.4 29.866666-29.866667 89.6 89.6-89.6 89.6-29.866666-29.866667 38.4-38.4h-196.266667v-42.666666h196.266667z m-264.533334-98.133334h-34.133333l-51.2-46.933333-51.2 51.2-29.866667-25.6 59.733334-59.733333v-149.333334h-42.666667v-42.666666h85.333333v196.266666l46.933334 38.4h230.4l-21.333334 42.666667h-192z m192-320v128h-170.666666v85.333334h42.666666v42.666666h-85.333333v-298.666666h213.333333v42.666666z m-42.666666 0h-128v21.333334h128v-21.333334z m0 64h-128v21.333334h128v-21.333334z m-17.066667 115.2l38.4-38.4 29.866667 29.866667-34.133334 34.133333 42.666667 29.866667-25.6 34.133333-140.8-98.133333 25.6-34.133333 64 42.666666z m213.333333 153.6h-42.666666V256H256v554.666667h256v42.666666H213.333333V213.333333h640v512zM366.933333 384l29.866667-29.866667 46.933333 46.933334-29.866666 25.6-46.933334-42.666667z" fill="#c1cbd9" p-id="14985"></path></svg>