<?xml version="1.0" standalone="no"?><!DOCTYPE svg PUBLIC "-//W3C//DTD SVG 1.1//EN" "http://www.w3.org/Graphics/SVG/1.1/DTD/svg11.dtd"><svg t="1709285399142" class="icon" viewBox="0 0 1024 1024" version="1.1" xmlns="http://www.w3.org/2000/svg" p-id="17283" xmlns:xlink="http://www.w3.org/1999/xlink" width="200" height="200"><path d="M144 464a32 32 0 0 1 32 32v16c0 185.216 155.744 336 348.576 336 88.096 0 170.88-31.584 234.464-87.36l8.192-7.392 11.68-10.944a32 32 0 0 1 45.216 1.536l21.856 23.36a32 32 0 0 1-1.504 45.248l-11.712 10.912c-82.272 76.928-191.776 120.64-308.16 120.64-141.12 0-267.104-63.968-348.608-163.84v35.84a32 32 0 0 1-32 32h-32a32 32 0 0 1-32-32v-320a32 32 0 0 1 32-32h32z m483.104-158.848l24.288 20.8a32 32 0 0 1 3.456 45.12L616.32 416h39.68a32 32 0 0 1 32 32v32a32 32 0 0 1-32 32h-96v32h96a32 32 0 0 1 32 32v32a32 32 0 0 1-32 32h-96v64a32 32 0 0 1-32 32h-32a32 32 0 0 1-32-32v-64h-96a32 32 0 0 1-32-32v-32a32 32 0 0 1 32-32h96v-32h-96a32 32 0 0 1-32-32v-32a32 32 0 0 1 32-32h39.648l-38.496-44.896a32 32 0 0 1 3.456-45.12l24.32-20.832a32 32 0 0 1 45.12 3.456L512 390.24l69.952-81.6a32 32 0 0 1 45.12-3.52zM505.184 80c138.656 0 262.4 63.36 342.816 162.304V208a32 32 0 0 1 32-32h32a32 32 0 0 1 32 32v320a32 32 0 0 1-32 32h-32a32 32 0 0 1-32-32V512c0-185.376-153.28-336-342.784-336-90.88 0-175.968 34.752-239.456 95.552l-7.52 7.424-11.2 11.424a32 32 0 0 1-45.28 0.384l-22.816-22.4a32 32 0 0 1-0.384-45.28l11.2-11.424A440.96 440.96 0 0 1 505.216 80z" fill="#c1cbd9" p-id="17284"></path></svg>