<?xml version="1.0" standalone="no"?><!DOCTYPE svg PUBLIC "-//W3C//DTD SVG 1.1//EN" "http://www.w3.org/Graphics/SVG/1.1/DTD/svg11.dtd"><svg t="1709285559749" class="icon" viewBox="0 0 1451 1024" version="1.1" xmlns="http://www.w3.org/2000/svg" p-id="20344" xmlns:xlink="http://www.w3.org/1999/xlink" width="283.3984375" height="200"><path d="M255.904975 848.034171c24.566878 0 45.331738 8.650151 62.058363 25.702983 16.91785 17.07533 25.376775 37.930179 25.376775 62.23834 0 23.475766-8.458925 43.74569-25.376775 60.798523-16.726624 17.266555-37.491485 25.702983-62.058363 25.702983-24.7806 0-45.55671-8.436428-62.260836-25.702983-16.940347-17.052833-25.399272-37.322756-25.399272-60.798523 0-24.308161 8.458925-45.16301 25.399272-62.23834 16.704127-17.052833 37.480236-25.702983 62.260836-25.702983m940.909164 1.41732c23.768229 0 44.308119 8.627653 61.642166 25.691734 17.334047 17.064081 25.995446 37.345254 25.995446 60.832269 0 24.263166-8.661399 45.16301-25.995446 62.215842s-37.873936 25.669238-61.642166 25.669238c-24.600623 0-45.342987-8.616405-62.058363-25.669238-16.929098-17.052833-25.388023-37.952676-25.388023-62.215842 0-23.487015 8.458925-43.779436 25.388023-60.832269 16.715376-17.07533 37.457739-25.691735 62.058363-25.691734M850.875607 0.18443l2.609668 880.391855c0 15.253061-5.253082 27.873957-15.714253 37.716456-10.472419 10.033725-22.980829 15.050587-37.468988 15.050587H426.748262c0-53.183241-13.700759-95.151657-40.888553-125.837756-27.412766-30.719846-70.326062-45.972907-128.762385-45.972907-55.601683 0-98.098782 14.251939-127.727516 42.553341-29.831209 28.503877-44.53309 71.473416-44.53309 129.257322H53.419461c-15.50053 0-28.413889-4.600665-38.290134-13.644516C5.061857 910.688708 0.022497 897.629117 0.022497 880.576285v-703.148132c0-21.675995 4.026988-42.947042 12.294688-63.633163a197.33367 197.33367 0 0 1 34.84807-56.80528 181.979371 181.979371 0 0 1 52.789541-41.338496c19.943715-10.22495 41.912173-15.466784 65.477928-15.466784h685.442883z m454.116033 597.771525c10.888616 0 20.551138-0.213723 28.605114-0.821146 8.256451-0.3937 12.317185-6.017985 12.317185-16.861607a10.011228 10.011228 0 0 0-0.62992-3.993242 10.911113 10.911113 0 0 1-0.584926-4.038237 2334.393307 2334.393307 0 0 0-32.845825-127.840002c-11.900987-40.944796-32.047177-75.882856-60.247343-104.791681-18.33517-17.052833-37.873936-29.493751-58.830023-37.120282-20.956087-7.626531-40.708576-12.643393-59.437445-14.859362-18.72887-2.395945-34.454371-3.003368-47.345233-2.002245l-20.337415 1.214845c-11.889739 0-21.957209 4.386942-30.224909 12.845868-8.065225 8.616405-12.294687 17.851481-12.294687 27.69398v123.036862c0 36.130408 0.416197 76.265307 1.394823 120.427194v1.394823c0 4.431937 3.22834 9.842499 9.685019 16.276681 6.254205 6.231708 12.688387 9.437551 19.145066 9.437551h251.630519z m21.754735-290.843035c34.668094 46.962781 60.66354 96.951428 77.997587 150.12342 17.31155 53.205738 29.392514 105.387856 36.242894 156.163902 6.861628 50.989769 10.06747 98.559973 9.67377 142.699363-0.3937 44.184384-0.798648 80.292295-0.798648 108.211247 0 5.410562-0.416197 11.833496-1.203597 19.67375a160.123399 160.123399 0 0 1-4.836886 22.879592 84.195549 84.195549 0 0 1-8.267699 19.662501c-3.22834 5.421811-7.435305 8.031479-12.890862 8.031479h-56.209106c0-30.506123-4.836885-56.80528-14.308181-78.29005-9.662522-21.675995-22.362158-39.33625-38.290133-52.78954-15.916727-13.633267-34.645597-23.475766-56.006632-29.696226a235.770034 235.770034 0 0 0-67.693897-9.640025c-23.768229 0-45.725438 4.623162-65.669153 13.644516-20.146189 9.032602-37.705208 21.091069-52.812038 36.535356a173.576689 173.576689 0 0 0-35.455494 53.396964 162.091899 162.091899 0 0 0-13.082087 64.229337h-24.578126c-16.332924 0-30.629857-5.815511-42.317122-17.660256-11.889739-11.64227-17.930221-25.691735-17.930221-41.945919V220.588917c0-9.842499 3.419565-21.484769 10.269945-34.521862s15.309304-20.067449 25.388023-20.877347c30.022434-2.823391 61.462188-1.608546 94.285517 3.408317a489.054093 489.054093 0 0 1 97.108907 24.904335 428.851744 428.851744 0 0 1 90.281026 45.961658c28.40264 19.077575 51.979644 41.54097 71.102213 67.648902" fill="#c1cbd9" p-id="20345"></path></svg>