<?xml version="1.0" standalone="no"?><!DOCTYPE svg PUBLIC "-//W3C//DTD SVG 1.1//EN" "http://www.w3.org/Graphics/SVG/1.1/DTD/svg11.dtd"><svg t="1709285490494" class="icon" viewBox="0 0 1024 1024" version="1.1" xmlns="http://www.w3.org/2000/svg" p-id="18365" xmlns:xlink="http://www.w3.org/1999/xlink" width="200" height="200"><path d="M70.537 537.54V171.476c0-52.294 34.052-93.643 86.347-102.156 17.026-2.433 35.268-2.433 52.294 0 17.026 1.216 29.188 17.026 27.972 34.052-1.217 17.026-14.594 31.62-31.62 31.62h-32.836c-21.891 0-35.269 14.594-35.269 36.484v732.124c0 21.89 14.594 36.485 36.485 36.485h665.235c23.107 0 36.484-14.594 36.484-37.701V173.91c1.217-8.513-2.432-18.243-7.296-25.54-6.081-8.513-15.81-13.377-26.756-13.377h-32.836c-18.242 0-34.052-14.594-34.052-32.836s14.594-32.836 32.836-34.052h1.216c19.459 0 38.917-1.217 57.16 3.648 43.78 8.513 75.4 48.646 76.617 93.644v735.772c0 43.781-19.459 76.617-59.592 96.076-13.377 6.08-26.755 9.729-41.349 8.513H172.694c-55.943 0-100.941-43.782-100.941-99.725V537.54h-1.216z" fill="#c1cbd9" p-id="18366"></path><path d="M502.27 200.665H372.144c-42.566 0-70.537-27.971-70.537-70.537V69.321C301.606 29.188 329.577 0 370.926 0h262.69c40.132 0 68.104 29.188 68.104 68.105v64.456c1.216 36.484-27.972 66.888-64.456 66.888h-1.216c-44.998 2.432-88.78 1.216-133.777 1.216zM643.345 54.727H369.71v83.914h273.634V54.727zM632.4 384.304c-13.378-12.161-34.052-12.161-47.43 0l-77.834 77.834-77.833-77.834c-13.378-12.161-34.053-12.161-47.43 0-13.378 13.378-13.378 34.052 0 47.43l68.104 68.104H411.06c-17.026 0-30.403 13.378-30.403 30.404s13.377 30.404 30.403 30.404h64.456v38.917h-65.672c-17.026 0-30.404 14.594-30.404 30.404 0 17.026 13.378 30.404 30.404 30.404H474.3v58.375c0 17.026 13.378 30.404 30.404 30.404h3.649c17.026 0 30.403-13.378 30.403-30.404v-59.592h65.673c17.026 0 30.403-13.377 30.403-30.403s-13.377-30.404-30.403-30.404h-65.673V559.43h65.673c17.026 0 30.403-14.594 30.403-30.404 0-17.026-13.377-30.404-30.403-30.404h-40.133l68.104-68.104c12.162-13.378 12.162-34.052 0-46.214z" fill="#c1cbd9" p-id="18367"></path></svg>