<?xml version="1.0" standalone="no"?><!DOCTYPE svg PUBLIC "-//W3C//DTD SVG 1.1//EN" "http://www.w3.org/Graphics/SVG/1.1/DTD/svg11.dtd"><svg t="1709285310883" class="icon" viewBox="0 0 1024 1024" version="1.1" xmlns="http://www.w3.org/2000/svg" p-id="16057" xmlns:xlink="http://www.w3.org/1999/xlink" width="200" height="200"><path d="M772.096 607.744c-34.816 0-62.976-29.696-62.976-66.56 0-36.352 28.16-66.56 62.976-66.56h197.632V419.84c0-35.84-27.648-64.512-61.44-64.512H220.672c-33.792 0-61.44 29.184-61.44 64.512v446.464c0 35.84 27.648 64.512 61.44 64.512h687.104c33.792 0 61.44-29.184 61.44-64.512v-258.56h-197.12z" p-id="16058" fill="#c1cbd9"></path><path d="M730.112 541.696c0 24.064 19.456 43.008 43.008 43.008s43.008-19.456 43.008-43.008-19.456-43.008-43.008-43.008-43.008 18.944-43.008 43.008zM120.832 381.44c0-35.84 29.184-64.512 64.512-64.512h666.112l-55.808-162.816c-11.264-33.792-48.64-51.712-81.92-40.448L69.632 334.848c-33.792 11.264-51.712 48.64-40.448 81.92l91.648 267.776V381.44z" p-id="16059" fill="#c1cbd9"></path></svg>