<?xml version="1.0" standalone="no"?><!DOCTYPE svg PUBLIC "-//W3C//DTD SVG 1.1//EN" "http://www.w3.org/Graphics/SVG/1.1/DTD/svg11.dtd"><svg t="1709286133470" class="icon" viewBox="0 0 1024 1024" version="1.1" xmlns="http://www.w3.org/2000/svg" p-id="25507" xmlns:xlink="http://www.w3.org/1999/xlink" width="200" height="200"><path d="M518.609455 96.349091a44.776727 44.776727 0 0 0-33.652364 0L119.901091 268.520727a13.963636 13.963636 0 0 0 0 25.274182l365.056 172.078546c9.309091 4.375273 24.389818 4.375273 33.652364 0l365.056-172.078546a13.963636 13.963636 0 0 0 0-25.274182L518.609455 96.349091zM527.36 537.506909a23.272727 23.272727 0 0 1 13.405091-21.085091l336.570182-157.090909a23.272727 23.272727 0 0 1 33.140363 21.085091v174.731636a186.181818 186.181818 0 1 0-219.554909 299.892364l-130.513454 60.881455a23.272727 23.272727 0 0 1-33.047273-21.085091v-357.329455zM126.184727 359.330909A23.272727 23.272727 0 0 0 93.090909 380.416v357.329455a23.272727 23.272727 0 0 0 13.451636 21.08509l336.570182 157.09091a23.272727 23.272727 0 0 0 33.140364-21.085091v-357.329455a23.272727 23.272727 0 0 0-13.451636-21.085091L126.184727 359.330909z m76.334546 159.790546L358.4 587.403636a23.272727 23.272727 0 0 1 13.917091 21.317819v36.770909a11.636364 11.636364 0 0 1-16.290909 10.705454L200.145455 587.869091a23.272727 23.272727 0 0 1-13.963637-21.317818v-36.770909a11.636364 11.636364 0 0 1 16.290909-10.705455z" fill="#c1cbd9" p-id="25508"></path><path d="M930.909091 693.527273c0-74.752-62.510545-135.261091-139.776-135.261091-77.265455 0-139.776 60.509091-139.496727 134.981818 0 37.236364 15.36 70.656 40.308363 95.092364l99.141818 84.107636 99.560728-83.781818c24.948364-24.436364 40.261818-58.181818 40.261818-95.138909z m-93.090909-4.654546a46.545455 46.545455 0 1 1-93.090909 0 46.545455 46.545455 0 0 1 93.090909 0z" fill="#c1cbd9" p-id="25509"></path></svg>